# xmcd
#
# Track frame offsets:
#	150
#	14785
#	27172
#	52750
#	64022
#	76547
#	87017
#	104782
#	115620
#	139207
#	150910
#	164607
#	187234
#	199662
#
# Disc length: 2918 seconds
#
# Revision: 1
# Processed by: cddbd v1.5.1PL0 Copyright (c) Steve Scherf et al.
# Submitted via: CDRider 2.0
#
DISCID=b00b640e
DTITLE=Elmer Lee Thomas Blues Revue - Radio Blues
DYEAR=1995
DGENRE=Blues
TTITLE0=Saving My Love For You
TTITLE1=I Just Want to Make Love to You
TTITLE2=Love's Highway
TTITLE3=Radio Blues
TTITLE4=Mo' Money
TTITLE5=One Dime
TTITLE6=Bull Doze Blues
TTITLE7=You Better Mind
TTITLE8=God Bless the Child
TTITLE9=Bankruptcy
TTITLE10=Your Funeral and My Trial
TTITLE11=Want You to Leave
TTITLE12=Whoopin' and Squallin'
TTITLE13=This Old Life
EXTD=
EXTT0=
EXTT1=
EXTT2=
EXTT3=
EXTT4=
EXTT5=
EXTT6=
EXTT7=
EXTT8=
EXTT9=
EXTT10=
EXTT11=
EXTT12=
EXTT13=
PLAYORDER=
